{"title":"Crach Test Honies vs Devotchkas.mov","uid":10217742,"size":185973154,"categoryP":"video","categoryS":"other","magnet":"?xt=urn:btih:a2ee3e69ab6f1ba98a181b309bbb6e678ba0513e&amp;dn=Crach+Test+Honies+vs+Devotchkas.mov&amp;tr=udp%3A%2F%2Ftracker.openbittorrent.com%3A80&amp;tr=udp%3A%2F%2Fopen.demonii.com%3A1337&amp;tr=udp%3A%2F%2Ftracker.coppersurfer.tk%3A6969&amp;tr=udp%3A%2F%2Fexodus.desync.com%3A6969","seeders":0,"leechers":0,"uploader":"patrick-gillett","files":1,"time":1400989250,"description":"Format                                   : MPEG-4\nCommercial name                          : DVCPRO\nFormat profile                           : QuickTime\nCodec ID                                 : qt  \nFile size                                : 177 MiB\nDuration                                 : 49s 40ms\nOverall bit rate                         : 30.3 Mbps\nEncoded date                             : UTC 2014-04-06 00:21:05\nTagged date                              : UTC 2014-04-06 00:21:27\nWriting library                          : Apple QuickTime\n\nVideo\nID                                       : 1\nFormat                                   : DV\nCommercial name                          : DVCPRO\nCodec ID                                 : dvcp\nDuration                                 : 49s 40ms\nBit rate mode                            : Constant\nBit rate                                 : 24.4 Mbps\nEncoded bit rate                         : 28.8 Mbps\nWidth                                    : 720 pixels\nHeight                                   : 576 pixels\nDisplay aspect ratio                     : 4:3\nOriginal display aspect ratio            : 4:3\nFrame rate mode                          : Constant\nFrame rate                               : 25.000 fps\nStandard                                 : PAL\nColor space                              : YUV\nChroma subsampling                       : 4:2:0\nBit depth                                : 8 bits\nScan type                                : Interlaced\nScan order                               : Bottom Field First\nCompression mode                         : Lossy\nBits/(Pixel*Frame)                       : 2.357\nStream size                              : 143 MiB (81%)\nEncoded stream size                      : 168 MiB (95%)\nLanguage                                 : English\nEncoded date                             : UTC 2014-04-06 00:21:05\nTagged date                              : UTC 2014-04-06 00:21:27\n\nAudio #1\nID                                       : 2\nFormat                                   : PCM\nFormat settings, Endianness              : Little\nFormat settings, Sign                    : Signed\nCodec ID                                 : sowt\nDuration                                 : 49s 40ms\nBit rate mode                            : Constant\nBit rate                                 : 1 536 Kbps\nChannel(s)                               : 2 channels\nChannel positions                        : Front: L R\nSampling rate                            : 48.0 KHz\nBit depth                                : 16 bits\nStream size                              : 8.98 MiB (5%)\nLanguage                                 : English\nEncoded date                             : UTC 2014-04-06 00:21:05\nTagged date                              : UTC 2014-04-06 00:21:27\n\nAudio #2\nID                                       : 1-0\nFormat                                   : PCM\nMuxing mode, more info                   : Muxed in Video #1\nDuration                                 : 49s 40ms\nBit rate mode                            : Constant\nBit rate                                 : 1 536 Kbps\nEncoded bit rate                         : 0 bps\nChannel(s)                               : 2 channels\nSampling rate                            : 48.0 KHz\nBit depth                                : 16 bits\nStream size                              : 8.98 MiB (5%)\nEncoded stream size                      : 0.00 Byte (0%)\n\nOther\nID                                       : 3\nType                                     : Time code\nFormat                                   : QuickTime TC\nDuration                                 : 49s 40ms\nTime code of first frame                 : 00:00:00:00\nTime code settings                       : Striped\nLanguage                                 : English\nEncoded date                             : UTC 2014-04-06 00:21:27\nTagged date                              : UTC 2014-04-06 00:21:27","torrent":{"xt":"urn:btih:a2ee3e69ab6f1ba98a181b309bbb6e678ba0513e","amp;dn":"Crach+Test+Honies+vs+Devotchkas.mov","amp;tr":["udp%3A%2F%2Ftracker.openbittorrent.com%3A80","udp%3A%2F%2Fopen.demonii.com%3A1337","udp%3A%2F%2Ftracker.coppersurfer.tk%3A6969","udp%3A%2F%2Fexodus.desync.com%3A6969"],"infoHash":"a2ee3e69ab6f1ba98a181b309bbb6e678ba0513e","infoHashBuffer":{"type":"Buffer","data":[162,238,62,105,171,111,27,169,138,24,27,48,155,187,110,103,139,160,81,62]},"announce":[],"urlList":[]}}